<svg width="38" height="38" viewBox="0 0 38 38" fill="none" xmlns="http://www.w3.org/2000/svg">
<g filter="url(#filter0_i_202_6)">
<circle cx="19" cy="19" r="18" fill="url(#paint0_diamond_202_6)"/>
</g>
<circle cx="19" cy="19" r="18.5" stroke="#FFCC00"/>
<path d="M13.624 19.88C11.384 18.68 9.872 16.28 9.872 13.4C9.872 9.44 12.896 6.2 16.592 6.2C20.288 6.2 23.312 9.44 23.312 13.4C23.312 17.3 20.456 20.48 16.816 20.6H16.76C11.216 20.6 6.68 25.46 6.68 31.4C6.68 31.76 6.456 32 6.12 32C5.784 32 5.56 31.76 5.56 31.4C5.56 25.94 8.976 21.32 13.624 19.88V19.88ZM16.592 19.4C19.672 19.4 22.192 16.7 22.192 13.4C22.192 10.1 19.672 7.4 16.592 7.4C13.512 7.4 10.992 10.1 10.992 13.4C10.992 16.7 13.512 19.4 16.592 19.4ZM31.936 23.36L32.048 23.66L30.704 25.4C30.48 25.7 30.48 26.18 30.704 26.48L32.048 28.16L31.936 28.46C31.656 29.3 31.264 30.14 30.704 30.8L30.48 31.04L28.408 30.68C28.072 30.62 27.68 30.86 27.568 31.22L26.84 33.38L26.56 33.44C25.496 33.68 24.432 33.68 23.368 33.44L23.032 33.38L22.36 31.28C22.248 30.92 21.856 30.68 21.52 30.74L19.392 31.1L19.168 30.86C18.888 30.56 18.664 30.2 18.496 29.84C18.272 29.42 18.048 28.94 17.936 28.46L17.824 28.16L19.224 26.48C19.448 26.18 19.448 25.7 19.224 25.46L17.88 23.72L17.992 23.42C18.272 22.52 18.72 21.74 19.28 21.02L19.504 20.78L21.52 21.14C21.856 21.2 22.248 20.96 22.416 20.6L23.144 18.5L23.424 18.44C24.432 18.2 25.496 18.2 26.56 18.44L26.896 18.5L27.568 20.54C27.68 20.9 28.072 21.2 28.464 21.14L30.536 20.84L30.76 21.08C31.04 21.44 31.264 21.74 31.432 22.16C31.6 22.46 31.768 22.94 31.936 23.36ZM30.368 22.64C30.256 22.4 30.144 22.22 29.976 21.98L28.52 22.16C27.624 22.28 26.728 21.68 26.448 20.78L26 19.4C25.328 19.28 24.656 19.28 23.984 19.4L23.48 20.84C23.2 21.74 22.248 22.34 21.352 22.16L19.952 21.92C19.616 22.34 19.392 22.88 19.168 23.36L20.12 24.56C20.68 25.28 20.68 26.42 20.12 27.14L19.168 28.34C19.28 28.64 19.392 28.88 19.56 29.18C19.672 29.42 19.784 29.6 19.952 29.78L21.464 29.54C22.36 29.42 23.256 30.02 23.536 30.92L23.984 32.36C24.656 32.48 25.384 32.48 26.056 32.36L26.56 30.86C26.84 29.96 27.792 29.36 28.632 29.54L30.032 29.78C30.312 29.36 30.592 28.88 30.76 28.34L29.864 27.2C29.304 26.48 29.248 25.34 29.808 24.62L30.76 23.42C30.648 23.18 30.536 22.94 30.368 22.64V22.64ZM24.992 28.64C23.592 28.64 22.472 27.44 22.472 25.94C22.472 24.44 23.592 23.24 24.992 23.24C26.392 23.24 27.512 24.44 27.512 25.94C27.512 27.44 26.336 28.64 24.992 28.64ZM24.992 27.44C25.776 27.44 26.392 26.78 26.392 25.94C26.392 25.1 25.776 24.44 24.992 24.44C24.208 24.44 23.592 25.1 23.592 25.94C23.592 26.78 24.208 27.44 24.992 27.44Z" fill="#FFCC00"/>
<defs>
<filter id="filter0_i_202_6" x="0" y="0" width="38" height="42" filterUnits="userSpaceOnUse" color-interpolation-filters="sRGB">
<feFlood flood-opacity="0" result="BackgroundImageFix"/>
<feBlend mode="normal" in="SourceGraphic" in2="BackgroundImageFix" result="shape"/>
<feColorMatrix in="SourceAlpha" type="matrix" values="0 0 0 0 0 0 0 0 0 0 0 0 0 0 0 0 0 0 127 0" result="hardAlpha"/>
<feOffset dy="4"/>
<feGaussianBlur stdDeviation="2"/>
<feComposite in2="hardAlpha" operator="arithmetic" k2="-1" k3="1"/>
<feColorMatrix type="matrix" values="0 0 0 0 0 0 0 0 0 0 0 0 0 0 0 0 0 0 0.25 0"/>
<feBlend mode="normal" in2="shape" result="effect1_innerShadow_202_6"/>
</filter>
<radialGradient id="paint0_diamond_202_6" cx="0" cy="0" r="1" gradientUnits="userSpaceOnUse" gradientTransform="translate(19 19) rotate(90) scale(18)">
<stop stop-color="#FFCC00"/>
<stop offset="1" stop-color="#090000" stop-opacity="0"/>
</radialGradient>
</defs>
</svg>
